<?xml version="1.0" standalone="no"?>
<!DOCTYPE svg PUBLIC "-//W3C//DTD SVG 1.1//EN" "http://www.w3.org/Graphics/SVG/1.1/DTD/svg11.dtd" >
<svg xmlns="http://www.w3.org/2000/svg">
<metadata>
Created by FontForge 20120731 at Sun Feb  5 10:40:48 2017
 By admin
</metadata>
<defs>
<font id="iconfont" horiz-adv-x="1024" >
  <font-face 
    font-family="iconfont"
    font-weight="500"
    font-stretch="normal"
    units-per-em="1024"
    panose-1="2 0 6 3 0 0 0 0 0 0"
    ascent="896"
    descent="-128"
    x-height="792"
    bbox="-0.0476189 -128 2076 896.35"
    underline-thickness="50"
    underline-position="-100"
    unicode-range="U+0078-E753"
  />
<missing-glyph horiz-adv-x="374" 
d="M34 0v682h272v-682h-272zM68 34h204v614h-204v-614z" />
    <glyph glyph-name=".notdef" horiz-adv-x="374" 
d="M34 0v682h272v-682h-272zM68 34h204v614h-204v-614z" />
    <glyph glyph-name=".null" horiz-adv-x="0" 
 />
    <glyph glyph-name="nonmarkingreturn" horiz-adv-x="341" 
 />
    <glyph glyph-name="x" unicode="x" horiz-adv-x="1001" 
d="M281 543q-27 -1 -53 -1h-83q-18 0 -36.5 -6t-32.5 -18.5t-23 -32t-9 -45.5v-76h912v41q0 16 -0.5 30t-0.5 18q0 13 -5 29t-17 29.5t-31.5 22.5t-49.5 9h-133v-97h-438v97zM955 310v-52q0 -23 0.5 -52t0.5 -58t-10.5 -47.5t-26 -30t-33 -16t-31.5 -4.5q-14 -1 -29.5 -0.5
t-29.5 0.5h-32l-45 128h-439l-44 -128h-29h-34q-20 0 -45 1q-25 0 -41 9.5t-25.5 23t-13.5 29.5t-4 30v167h911zM163 247q-12 0 -21 -8.5t-9 -21.5t9 -21.5t21 -8.5q13 0 22 8.5t9 21.5t-9 21.5t-22 8.5zM316 123q-8 -26 -14 -48q-5 -19 -10.5 -37t-7.5 -25t-3 -15t1 -14.5
t9.5 -10.5t21.5 -4h37h67h81h80h64h36q23 0 34 12t2 38q-5 13 -9.5 30.5t-9.5 34.5q-5 19 -11 39h-368zM336 498v228q0 11 2.5 23t10 21.5t20.5 15.5t34 6h188q31 0 51.5 -14.5t20.5 -52.5v-227h-327z" />
    <glyph glyph-name="uniE600" unicode="&#xe600;" 
d="M512 896q-138 0 -256 -69t-187 -187t-69 -256t69 -256t187 -187t256 -69t256 69t187 187t69 256t-69 256t-187 187t-256 69zM734 350h-192v-192q0 -14 -9.5 -24t-24.5 -10q-14 0 -24 9.5t-10 24.5v192h-184q-15 0 -24.5 10t-9.5 24t9.5 24t24.5 10h192v188
q-3 15 6.5 24.5t23.5 9.5t24 -9.5t10 -24.5v-192h192q14 0 24 -9.5t10 -24.5q-4 -12 -14 -21t-24 -9z" />
    <glyph glyph-name="uniE601" unicode="&#xe601;" 
d="M509 695l80 -75l383 -365q21 -17 21 -41q0 -23 -16.5 -39t-40.5 -16q-19 0 -36 13l-6 6l-385 366l-395 -375l-2 -2l-2 -2q-18 -13 -37 -13q-23 0 -40 16t-17 38q0 26 23 43z" />
    <glyph glyph-name="uniE602" unicode="&#xe602;" 
d="M513 88l-79 76l-383 365q-21 17 -21 41q0 23 16.5 38.5t40.5 15.5q19 0 36 -13q3 -2 6 -5l385 -366l395 375q1 1 2 1l2 3q18 13 37 13q23 0 40 -16t17 -39q0 -25 -23 -42z" />
    <glyph glyph-name="uniE603" unicode="&#xe603;" 
d="M511 566q41 0 70 -29t29 -69.5t-29 -69.5t-70 -29t-70 29t-29 69.5t29 69.5t70 29zM694 155l-183 -182l-183 182q-82 48 -130.5 131t-48.5 181.5t48.5 182t132 132t182 48.5t182 -48.5t132 -132t48.5 -182t-49 -181.5t-131 -131zM939 468q0 116 -57 214.5t-156 156
t-215 57.5t-215 -57.5t-156 -156t-57 -214.5q0 -112 53 -207.5t144 -153.5l-2 -2l233 -233l233 233l-2 2q91 58 144 153.5t53 207.5z" />
    <glyph glyph-name="uniE604" unicode="&#xe604;" 
d="M512 896q-115 0 -213.5 -57.5t-156 -155.5t-57.5 -214q0 -100 44.5 -188t121.5 -148l261 -261l261 261q77 60 121.5 148t44.5 188q0 116 -57.5 214t-156 155.5t-213.5 57.5zM512 597q54 0 91 -36.5t37 -91t-37 -91.5t-91 -37t-91 37t-37 91.5t37 91t91 36.5z" />
    <glyph glyph-name="uniE605" unicode="&#xe605;" 
d="M480 415h-212q-14 0 -22.5 -9.5t-8.5 -25.5q0 -14 9 -25t22 -11h212v-212q0 -13 9.5 -22t25.5 -9q14 0 24.5 9t10.5 22v212h213q13 0 21.5 9.5t8.5 26.5q0 13 -9 24t-21 11h-213v212q0 14 -9.5 22.5t-25.5 8.5q-14 0 -24.5 -9t-10.5 -22v-212zM886 -124h-110v44h110
q29 0 49 13l26 -35q-27 -22 -75 -22zM564 -80h172v-44h-172v44zM343 -80h172v-44h-172v44zM299 -124h-177l4 44h173v-44zM73 -111q-33 17 -51.5 48.5t-18.5 70.5v53h44v-53q0 -23 12.5 -44.5t35.5 -34.5zM997 -67l-36 27q14 20 14 48v111h44v-111q0 -47 -22 -75zM3 278h44
v-172h-44v172zM975 335h44v-172h-44v172zM3 494h44v-172h-44v172zM975 552h44v-172h-44v172zM3 715h44v-172h-44v172zM1019 596h-44v172l44 5v-177zM3 755q0 57 38 95t94 38v-44q-36 0 -62 -26t-26 -63h-44zM966 799q-28 49 -80 49h-53v44h53q37 0 68 -19t47 -52zM617 892
h172v-44h-172v44zM396 892h172v-44h-172v44zM179 892h173v-44h-173v44z" />
    <glyph glyph-name="uniE606" unicode="&#xe606;" 
d="M198 396l75 79l365 383q17 21 42 21q22 0 38 -16.5t16 -40.5q0 -19 -13 -35q-3 -4 -6 -7l-366 -385l375 -395l2 -2l2 -2q13 -18 13 -37q0 -23 -16 -40t-38 -17q-26 0 -43 23z" />
    <glyph glyph-name="uniE607" unicode="&#xe607;" 
d="M841 386l-75 -79l-365 -383q-17 -21 -42 -21q-22 0 -38 16.5t-16 40.5q0 19 13 35q3 4 6 7l366 385l-375 394q-1 2 -2 3l-3 2q-12 18 -12 37q0 23 16 40t38 17q26 0 43 -24z" />
    <glyph glyph-name="uniE608" unicode="&#xe608;" 
d="M932 613q-41 74 -105.5 131t-143.5 87v-464zM949 579l-307 -308l-21 -20h352q20 66 20 136q-5 104 -44 192zM406 521h-351q-21 -67 -21 -137q0 -102 41 -195l314 314q2 4 4.5 6.5t6.5 5.5t6 6zM649 490v351q-67 21 -137 21q-102 0 -195 -41l308 -307q14 -10 24 -24z
M512 558h20l-249 246q-74 -41 -131 -105.5t-87 -143.5h440q2 0 3.5 1.5t3.5 1.5zM375 278v-351q67 -21 137 -21q102 0 195 41l-314 314q-4 2 -6.5 4.5t-5.5 6.5t-6 6zM512 210h-20l249 -249q157 87 218 249h-440q-1 2 -3.5 1t-3.5 -1zM338 -63v447v20l-249 -249
q92 -158 249 -218z" />
    <glyph glyph-name="uniE609" unicode="&#xe609;" 
d="M877 404zM575 386l372 369q13 13 13 32t-13 32t-31.5 13t-31.5 -13l-372 -370l-368 370q-13 13 -31.5 13t-32 -13t-13.5 -31.5t13 -32.5l369 -369l-372 -370q-13 -13 -13 -31.5t13 -31.5t31.5 -13t31.5 13l372 369l371 -373q14 -13 32.5 -13t31.5 13t13 31.5t-13 31.5z
M575 386z" />
    <glyph glyph-name="uniE60A" unicode="&#xe60a;" 
d="M984 583q-39 92 -110 163t-163 110q-95 40 -199 40t-199 -40q-92 -39 -163 -110t-110 -163q-40 -95 -40 -199t40 -199q39 -92 110 -163t163 -110q95 -40 199 -40t199 40q92 39 163 110t110 163q40 95 40 199t-40 199zM723 167q-10 -10 -25 -10t-26 10l-164 164l-164 -164
h-1q-10 -11 -25 -11t-26 11t-11 26t11 25l164 165l-164 164q-11 11 -11 26t11 25q10 11 25 11t26 -11l164 -164l164 165h1q10 10 25 10t26 -10.5t11 -25.5t-11 -26l-164 -164l164 -164q11 -11 11 -26t-11 -26z" />
    <glyph glyph-name="uniE60B" unicode="&#xe60b;" 
d="M955 320q-24 36 -64 60q43 27 67 70.5t21 95.5q0 80 -60 134q-53 53 -137 53q-32 0 -81 -24q0 18 -7 46q-21 73 -92 116q-72 39 -145 18q-79 -23 -117 -92q-15 -31 -21 -81q-39 26 -88.5 26t-94.5 -26q-72 -39 -88 -117q-21 -72 21 -144q23 -36 63 -60q-42 -28 -65 -72
t-23 -94q0 -80 60 -134q53 -53 134 -53h3q21 0 78 21q0 -15 7 -50q21 -73 92 -116q39 -25 92 -25q51 0 97 26t72 73q16 32 21 84q49 -24 92 -24q48 0 99 28q67 40 86 116t-22 145zM789 645q42 0 70 -28q32 -32 32 -71q0 -42 -28.5 -72t-70.5 -30q-10 0 -21 4l-53 21
q-62 31 -116 70q27 21 35 29q117 77 152 77zM598 324q-9 -5 -40.5 -19t-51.5 -23q-4 2 -36.5 25t-55.5 38q8 50 8 99q11 6 45 20.5t50 21.5q4 -2 36.5 -25.5t55.5 -37.5q-4 -20 -11 -99zM425 758q20 34 60 46q11 3 28 3q31 0 50 -14q38 -22 49 -60q11 -36 -7 -77
q-1 -2 -5.5 -8t-8.5 -10q-11 -6 -27.5 -20t-18.5 -16q-33 -22 -116 -63q0 7 -2 21t-2 21q-10 61 -10 109.5t10 67.5zM136 574q11 44 46 64q23 14 53 14q57 0 84 -49q7 -7 7 -21q2 -9 4 -27.5t4 -25.5q0 -89 -4 -134q-41 16 -46 17q-120 57 -138 89q-22 33 -10 73zM238 130
q-42 0 -71 28q-31 27 -31 70t28 73t70 30q8 0 15 -4q43 -18 67 -28q48 -27 105 -67q-57 -43 -108.5 -72.5t-74.5 -29.5zM598 13q-21 -37 -60.5 -48t-77.5 10q-38 22 -49 60q-11 36 7 77q11 21 63 53.5t117 59.5q11 -66 11 -128t-11 -84zM842 137q-37 -22 -77 -12t-61 47
q-24 38 -11 212q18 -9 39 -14q124 -56 145 -92q21 -40 11.5 -80t-46.5 -61z" />
    <glyph glyph-name="uniE60C" unicode="&#xe60c;" 
d="M512 896q-104 0 -199 -40.5t-163.5 -109t-109 -163.5t-40.5 -199t40.5 -199t109 -163.5t163.5 -109t199 -40.5t199 40.5t163.5 109t109 163.5t40.5 199t-40.5 199t-109 163.5t-163.5 109t-199 40.5zM512 -77q-94 0 -179 36.5t-147 98.5t-98.5 147t-36.5 179t36.5 179
t98.5 147t147 98.5t179 36.5t179 -36.5t147 -98.5t98.5 -147t36.5 -179t-36.5 -179t-98.5 -147t-147 -98.5t-179 -36.5zM729 601q-7 8 -18 8t-18 -8l-181 -181l-181 181q-8 8 -18.5 8t-17.5 -8q-8 -7 -8 -17.5t8 -18.5l181 -181l-181 -181q-8 -7 -8 -18t7.5 -18.5t18 -7.5
t18.5 8l181 181l181 -181q7 -8 17.5 -8t18 7.5t7.5 18t-7 18.5l-181 181l181 181q8 7 8 18t-8 18z" />
    <glyph glyph-name="uniE60D" unicode="&#xe60d;" 
d="M512 896q-140 0 -257.5 -68.5t-186 -186t-68.5 -257.5t68.5 -257.5t186 -186t257.5 -68.5t257.5 68.5t186 186t68.5 257.5t-68.5 257.5t-186 186t-257.5 68.5zM512 -81q-94 0 -180.5 37t-148.5 99t-99 148.5t-37 180.5t37 180.5t99 148.5t148.5 99t180.5 37t180.5 -37
t148.5 -99t99 -148.5t37 -180.5t-37 -180.5t-99 -148.5t-148.5 -99t-180.5 -37zM791 407h-256v256q0 9 -7 16.5t-16 7.5t-16 -7.5t-7 -16.5v-279q0 -9 7 -16t16 -7h279q9 0 16.5 7t7.5 16t-7.5 16t-16.5 7z" />
    <glyph glyph-name="uniE60E" unicode="&#xe60e;" 
d="M250 540q-5 0 -9 -3.5t-4 -9.5v-90q0 -6 4 -10t9 -4h51q5 0 9 4t4 10v90q0 6 -4 9.5t-9 3.5h-51zM537 540h-50q-6 0 -10 -3.5t-4 -9.5v-90q0 -6 4 -10t10 -4h50q6 0 10 4t4 10v90q0 6 -4 9.5t-10 3.5zM945 857h-866q-33 0 -56 -23t-23 -56v-591q0 -33 23 -56t56 -23h237
l197 -197l197 197h235q33 0 56 23t23 56v591q0 33 -23 56t-56 23zM946 225q0 -16 -11.5 -27.5t-27.5 -11.5h-223l-7 6l-164 -164l-165 164l-7 -6h-223q-16 0 -27.5 11.5t-11.5 27.5v513q0 16 11.5 27.5t27.5 11.5h789q16 0 27.5 -11.5t11.5 -27.5v-513zM774 540h-50
q-6 0 -10 -3.5t-4 -9.5v-90q0 -6 4 -10t10 -4h50q6 0 10 4t4 10v90q0 6 -4 9.5t-10 3.5z" />
    <glyph glyph-name="uniE60F" unicode="&#xe60f;" 
d="M601 473l368 239q4 0 4 3q-34 34 -79 34h-734q-44 0 -75 -30l386 -246q26 -18 65 -18t65 18zM655 394q-57 -34 -119 -34q-70 0 -116 31l-372 235v-484q0 -46 32.5 -78t76.5 -32h734q46 0 77.5 32t31.5 78v481z" />
    <glyph glyph-name="uniE610" unicode="&#xe610;" 
d="M512 -128q139 0 257 68.5t186.5 186.5t68.5 257t-68.5 257t-186.5 186.5t-257 68.5t-257 -68.5t-186.5 -186.5t-68.5 -257t68.5 -257t186.5 -186.5t257 -68.5zM199 384q0 18 12.5 30.5t30.5 12.5h540q18 0 30.5 -12.5t12.5 -30.5t-12.5 -30.5t-30.5 -12.5h-540v1
q0 17 -12.5 29.5t-30.5 12.5z" />
    <glyph glyph-name="uniE611" unicode="&#xe611;" 
d="M512 896q-140 0 -257.5 -68.5t-186 -186t-68.5 -257.5t68.5 -257.5t186 -186t257.5 -68.5t257.5 68.5t186 186t68.5 257.5t-68.5 257.5t-186 186t-257.5 68.5zM512 -81q-94 0 -180.5 37t-148.5 99t-99 148.5t-37 180.5t37 180.5t99 148.5t148.5 99t180.5 37t180.5 -37
t148.5 -99t99 -148.5t37 -180.5t-37 -180.5t-99 -148.5t-148.5 -99t-180.5 -37zM791 407h-558q-10 0 -17 -7t-7 -16t7.5 -16t16.5 -7h558q10 0 17 7t7 16t-7.5 16t-16.5 7z" />
    <glyph glyph-name="uniE612" unicode="&#xe612;" horiz-adv-x="1026" 
d="M601 725l-223 -219v-448l-87 60q-7 5 -13.5 17.5t-6.5 20.5v348l-13 15l-190 206h533zM624 776h-570q-42 0 -51.5 -22t18.5 -53l199 -216v-329q0 -21 12.5 -44.5t29.5 -35.5l104 -73q17 -11 31.5 -11t23 11.5t8.5 32.5v449l225 220q30 29 21.5 50t-51.5 21zM616 470
q0 11 7.5 18.5t17.5 7.5h358q10 0 17.5 -7.5t7.5 -18t-7.5 -18t-17.5 -7.5h-358q-10 0 -17.5 7t-7.5 18zM616 291q0 11 7.5 18.5t17.5 7.5h358q10 0 17.5 -7.5t7.5 -18t-7.5 -18t-17.5 -7.5h-358q-10 0 -17.5 7.5t-7.5 17.5zM616 113q0 10 7.5 17.5t17.5 7.5h358
q10 0 17.5 -7.5t7.5 -18t-7.5 -18t-17.5 -7.5h-358q-10 0 -17.5 7.5t-7.5 18.5z" />
    <glyph glyph-name="uniE614" unicode="&#xe614;" 
d="M946 186v-117q0 -17 -11.5 -28.5t-27.5 -11.5h-789q0 16 -11.5 28t-27.5 12v629q0 16 11.5 28t27.5 12h276v79h-315q-33 0 -56 -23.5t-23 -55.5v-709q0 -33 23 -56t56 -23h866q33 0 56 23t23 56v157h-78zM664 739h222l-547 -488q0 -17 -12 -29q0 -16 11.5 -27.5
t27.5 -11.5q11 9 25 9h1l549 490v-181q0 16 11.5 28t27.5 12t28 -12t12 -28v317h-356q17 0 28.5 -11.5t11.5 -28t-12 -28t-28 -11.5z" />
    <glyph glyph-name="uniE615" unicode="&#xe615;" horiz-adv-x="1228" 
d="M1161 896h-1093q-28 0 -48 -20t-20 -48v-888q0 -28 20 -48t48 -20h1093q28 0 48 20t20 48v888q0 28 -20 48t-48 20zM86 -60l245 259l169 -180h1l2 -2l72 -77h-303h-186zM1161 -60h-494l-97 102l374 396l217 -229v-269zM1161 305l-192 203l-1 1q0 1 -1 2q-9 10 -23 10
t-23 -10q0 -1 -1 -2l-1 -1l-394 -418l-169 179v1l-2 2h-1q-13 0 -22 10q-14 0 -23 -10l-2 -2v-1l-238 -251v810h1093v-523zM325 522q50 0 85.5 34.5t35.5 84.5q0 49 -35.5 83.5t-85.5 34.5t-85 -34.5t-35 -83.5q0 -50 35 -84.5t85 -34.5zM326 692q22 0 37.5 -15.5
t15.5 -37.5t-15.5 -37.5t-37.5 -15.5t-37.5 15.5t-15.5 37.5t15.5 37.5t37.5 15.5z" />
    <glyph glyph-name="uniE616" unicode="&#xe616;" 
d="M929 558q-16 4 -42.5 6t-52 2.5t-81 1t-95.5 1.5q8 34 8 101q0 52 -30.5 100t-74 75.5t-82.5 27.5q-42 0 -72 -26t-31 -63q0 -27 -5.5 -53.5t-19.5 -58t-42.5 -60t-68.5 -46.5q-21 -10 -36 -16v0h-1h-121q-34 0 -58 -24t-24 -58v-491q0 -34 24 -58t58 -24h658
q43 0 88.5 22.5t63.5 52.5q14 22 31 56t43 98t43 152t17 179q0 32 -25 62t-72 41zM164 -23h-41q-17 0 -29 12t-12 29v409q0 17 12 29t29 12h41q15 0 26 -10t13 -25v-421q-2 -15 -13 -25t-26 -10zM823 14l-1 -1v-2q-7 -10 -33 -22.5t-49 -12.5l-454 1v521q44 22 76.5 54
t50 62t28.5 64.5t14 58t3 45.5q0 1 2.5 3.5t7.5 4.5t11 2q28 0 67 -39t39 -83q0 -57 -6 -81l-25 -99l102 -2q57 -1 109 -2q123 -2 144 -6q12 -3 20.5 -8.5t11.5 -9.5t3 -7q0 -85 -16 -167.5t-40.5 -141.5t-39 -87t-25.5 -45z" />
    <glyph glyph-name="uniE617" unicode="&#xe617;" 
d="M770 765q90 -71 136 -179t33 -227q-16 -155 -129 -267t-270 -132q-9 0 -25.5 -3t-24.5 -3q-104 0 -196 45t-160 125q28 -6 88 -6q44 0 109 11q162 33 281 151.5t152 281.5q23 99 6 203zM704 896q-21 0 -34 -17.5t-5 -37.5q46 -126 22 -257q-28 -136 -129.5 -237
t-237.5 -130q-65 -11 -98 -11q-73 0 -164 27h-17q-20 0 -33 -19.5t-5 -40.5q67 -137 195.5 -219t286.5 -82q38 0 60 5q185 21 317.5 154t153.5 317q20 172 -63.5 319t-232.5 224q-5 5 -16 5z" />
    <glyph glyph-name="uniE618" unicode="&#xe618;" 
d="M942 329q-23 46 -52 80.5t-57 49.5q-4 7 -9 22.5t-8 21.5q7 41 7 65q0 118 -83 199t-201 81q-117 0 -200 -82t-83 -198q0 -24 7 -65q-4 -6 -9 -21.5t-8 -22.5q-29 -15 -58 -49.5t-51 -80.5q-36 -71 -36.5 -135.5t32.5 -79.5q34 -17 82 21q30 -54 58 -82
q-37 -11 -59 -29.5t-19 -38.5q2 -32 45.5 -53.5t104.5 -18.5q39 0 73 12.5t53 31.5q41 -6 68 -6q21 0 69 6q38 -39 126 -44q61 -3 105.5 19t44.5 53q0 22 -21 39.5t-57 28.5q19 19 33 39.5t21 42.5q51 -34 82 -21q36 16 36 80t-36 135z" />
    <glyph glyph-name="uniE619" unicode="&#xe619;" 
d="M147 114q-86 112 -86 260q0 90 35.5 172.5t94.5 141.5t141.5 94t173 35t172.5 -35t141.5 -94t94.5 -141.5t35 -173t-35 -172.5t-94.5 -141.5t-141.5 -94.5t-173 -35q-106 0 -208 51l-184 -37z" />
    <glyph glyph-name="uniE61A" unicode="&#xe61a;" horiz-adv-x="1069" 
d="M671.5 613q52.5 0 89.5 36t37 87.5t-37 87.5t-89.5 36t-89.5 -36t-37 -87.5t37 -87.5t89.5 -36zM671 775q17 0 29 -11.5t12 -27t-12 -27t-29 -11.5t-29 11.5t-12 27t12 27t29 11.5zM975 597l-276 -50v22q0 12 -8 20.5t-19.5 8.5t-20 -8.5t-8.5 -20.5v-23l-280 51
q-7 2 -15 0l-314 -57q-15 -2 -24.5 -14t-9.5 -27v-549q0 -20 15 -32.5t34 -8.5l306 55l306 -55q8 -2 15 0l314 56q15 3 24.5 14.5t9.5 27.5v549q0 20 -15 32.5t-34 8.5zM363 48q-8 1 -15 0l-264 -48v464l271 50l288 -53v-178q0 -12 8.5 -20t20 -8t19.5 8t8 20v179l241 44
v-465l-271 -49l-77 14l-152 28z" />
    <glyph glyph-name="uniE61B" unicode="&#xe61b;" 
d="M474.5 463q-74.5 0 -127.5 -52t-53 -126t53 -125.5t127.5 -51.5t127.5 51.5t53 125.5t-53 126t-127.5 52zM413 183q-26 0 -43.5 17.5t-17.5 43.5t17.5 43.5t43.5 17.5t43.5 -17.5t17.5 -43.5t-17.5 -43.5t-43.5 -17.5zM891 493q16 55 -10 92q-23 36 -76 44.5t-119 -9.5
q11 76 -27 119q-37 44 -111 45t-165 -40t-175 -114q-96 -84 -151.5 -180t-53.5 -168v-7q0 -93 64.5 -169.5t174.5 -118.5t239 -36q102 2 191.5 27.5t152.5 64.5t109 87t68 97.5t22 95.5q0 95 -133 170zM495 22q-98 -5 -182 26t-135.5 89.5t-54.5 130.5t41.5 135.5t125 103
t178 44.5t182 -26t135.5 -89t55 -131q5 -72 -40 -135.5t-126 -103t-179 -44.5z" />
    <glyph glyph-name="uniE61C" unicode="&#xe61c;" 
d="M858 269v51q0 38 -29 67t-67 29h-224v83q59 10 99.5 54.5t40.5 105.5q0 67 -46 113.5t-114 46.5q-67 0 -116.5 -46.5t-49.5 -113.5q0 -61 38 -105.5t96 -54.5v-83h-224q-39 -5 -67.5 -32t-28.5 -64v-51q-58 -10 -96 -54.5t-38 -105.5q0 -67 46.5 -113.5t113.5 -46.5
t113.5 46.5t46.5 113.5q0 61 -38 105.5t-96 54.5v51q0 19 12.5 32t31.5 13h500q19 0 31.5 -13t12.5 -32v-51q-59 -10 -99.5 -54.5t-40.5 -105.5q0 -67 46 -113.5t113.5 -46.5t114 46.5t46.5 113.5q4 56 -32.5 100.5t-95.5 59.5zM403 659q0 45 31 77t78 32t78 -32t31 -77
t-31.5 -80t-77.5 -35q-47 0 -78 33.5t-31 81.5zM307 102q0 -47 -32 -77.5t-77 -30.5q-43 0 -75.5 32.5t-32.5 76t32.5 76t75.5 32.5q45 0 77 -31t32 -78zM826 -6q-47 0 -78 32t-31 76t32.5 76.5t76 32.5t76 -32.5t32.5 -76.5t-30.5 -76t-77.5 -32z" />
    <glyph glyph-name="uniE61D" unicode="&#xe61d;" 
d="M618 205q-93 -69 -209 -69q-95 0 -175 46.5t-126.5 126.5t-46.5 174.5t46.5 174.5t126.5 127t174.5 47t174.5 -47t127 -127t46 -174q0 -117 -69 -209q8 -4 15 -11l239 -239q15 -15 15.5 -36.5t-15.5 -37.5q-15 -15 -36.5 -15t-36.5 15l-240 239q-7 7 -10 15zM408.5 205
q115.5 0 197 81.5t81.5 197.5q2 115 -78.5 198t-195.5 84.5t-198 -78.5t-85 -196v-8q0 -116 81.5 -197.5t197 -81.5z" />
    <glyph glyph-name="uniE61E" unicode="&#xe61e;" horiz-adv-x="1396" 
d="M488 79h99l-395 395l-99 -99l395 -395l49 -49l50 49l724 724l-99 99z" />
    <glyph glyph-name="uniE61F" unicode="&#xe61f;" 
d="M512 0q-105 0 -193.5 51t-139.5 139.5t-51 193.5t51 193.5t139.5 139.5t193.5 51t193.5 -51t139.5 -139.5t51 -193.5t-51 -193.5t-139.5 -139.5t-193.5 -51zM512 683q-125 0 -212 -87t-87 -212t87 -211.5t212 -86.5t211.5 86.5t86.5 211.5t-86.5 212t-211.5 87zM755 627
q-13 13 -13 30t13 30l38 38q13 13 30 13t30 -13t13 -30t-13 -30l-38 -38q-13 -13 -31.5 -13t-28.5 13zM171 43q-13 13 -13 30t13 30l38 38q13 13 30 13t30 -13t13 -30t-13 -30l-38 -38q-13 -13 -30 -13t-30 13zM755 141q13 13 30 13t30 -13l38 -38q13 -13 13 -30t-13 -30
t-30 -13t-30 13l-38 38q-13 13 -13 31.5t13 28.5zM171 725q13 13 30 13t30 -13l38 -38q13 -13 13 -30t-13 -30t-30 -13t-30 13l-38 38q-13 13 -13 30t13 30zM810 384q0 19 12 31t31 12h128q17 0 30 -12t13 -31q0 -17 -12 -30t-31 -13h-128q-19 0 -31 12t-12 31zM0 384
q0 19 12 31t31 12h128q17 0 29.5 -12t12.5 -31q0 -17 -12 -30t-30 -13h-128q-19 0 -31 12t-12 31zM512 86q19 0 31 -12t12 -31v-128q0 -17 -12.5 -30t-30.5 -13q-17 0 -30 12t-13 31v128q0 19 12 31t31 12zM512 896q19 0 31 -12t12 -31v-128q0 -17 -12.5 -29.5t-30.5 -12.5
q-16 0 -29.5 13t-13.5 29v128q0 19 13 31t30 12z" />
    <glyph glyph-name="uniE620" unicode="&#xe620;" 
d="M979 51q-33 144 -144 233.5t-265 99.5q86 14 145 82.5t59 154.5q0 101 -72 172t-177 71t-177.5 -71t-72.5 -172q0 -86 59 -154.5t146 -82.5q-154 -14 -265 -104t-145 -229q-11 -66 26 -102q29 -39 83 -39h704q55 0 83 39q29 56 13 102zM333 621q0 77 55.5 131t136.5 54
t136.5 -54t55.5 -131t-55.5 -131.5t-136.5 -54.5t-136.5 54.5t-55.5 131.5zM915 -19q-4 -9 -15.5 -14t-22.5 -5h-704q-19 0 -39 19q-9 9 -13 25t1 26q33 135 141.5 214.5t261.5 79.5t261 -79.5t142 -214.5q5 -10 1 -26t-14 -25z" />
    <glyph glyph-name="uniE621" unicode="&#xe621;" 
d="M512 873q-101 0 -193 -38.5t-158.5 -105t-106 -159t-39.5 -194.5q0 -100 39.5 -192t106 -159t158.5 -106.5t193 -39.5t193 39.5t158.5 106.5t106 159t39.5 192q0 102 -39.5 194.5t-106 159t-158.5 105t-193 38.5zM433 153l-16 -13l-195 195l46 45l153 -153l319 319
l45 -45z" />
    <glyph glyph-name="uniE622" unicode="&#xe622;" horiz-adv-x="1026" 
d="M512 896q-104 0 -198.5 -40.5t-163.5 -109.5t-109.5 -163.5t-40.5 -198.5t40.5 -198.5t109.5 -163.5t163.5 -109.5t198.5 -40.5t198.5 40.5t163.5 109.5t109.5 163.5t40.5 198.5t-40.5 198.5t-109.5 163.5t-163.5 109.5t-198.5 40.5zM512 80q-17 0 -30 12.5t-13 29.5
t13 30t30 13t30 -13t13 -30t-13 -29.5t-30 -12.5zM555 265q0 -18 -13 -30.5t-30 -12.5t-30 12.5t-13 30.5v369q0 17 13 30t30 13t30 -13t13 -30v-369z" />
    <glyph glyph-name="uniE623" unicode="&#xe623;" horiz-adv-x="2123" 
d="M2070 11v10l6 -3zM2060 15l10 -4l-7 -6zM839 869q-116 0 -214.5 -49t-157 -134t-58.5 -186q0 -167 171 -292l-45 -129l150 77q88 -21 150 -21h24q-16 65 -16 98q0 97 55.5 180t151 131.5t206.5 48.5h8q-36 120 -155 198t-270 78zM701 577q-25 0 -45 14.5t-20 38t20 38
t45 14.5q24 0 38.5 -14t14.5 -38.5t-14.5 -38.5t-38.5 -14zM1001 577q-26 0 -45.5 14.5t-19.5 38t19.5 38t45.5 14.5q24 0 38.5 -14t14.5 -38.5t-14.5 -38.5t-38.5 -14zM1625 229q0 85 -50.5 157t-134.5 113.5t-180 41.5q-101 0 -185 -42.5t-131.5 -114t-47.5 -155.5
q0 -86 48.5 -158t132.5 -113t183 -41q20 0 40 2.5t49.5 9t40.5 8.5l117 -65l-32 109q150 115 150 248zM1143 285q-16 0 -30.5 13.5t-14.5 31.5q0 16 13.5 30t31.5 14q23 0 37.5 -12.5t14.5 -31.5t-14.5 -32t-37.5 -13zM1378 285q-16 0 -30.5 13.5t-14.5 31.5q0 16 13.5 30
t31.5 14q23 0 37.5 -12.5t14.5 -31.5t-14.5 -32t-37.5 -13z" />
    <glyph glyph-name="uniE624" unicode="&#xe624;" 
d="M922 826q13 0 22.5 -9.5t9.5 -22.5v-820q0 -13 -9.5 -22.5t-22.5 -9.5h-820q-13 0 -22.5 9.5t-9.5 22.5v820q0 13 9.5 22.5t22.5 9.5h820zM922 896h-820q-42 0 -72 -30t-30 -72v-820q0 -42 30 -72t72 -30h820q42 0 72 30t30 72v820q0 42 -30 72t-72 30zM384.5 288
q-15.5 0 -31.5 -16q-21 -20 -52.5 -22.5t-54.5 8.5q-21 9 -36 26q-15 16 -23 42q-9 25 -9 59q0 24 8 48t23 44q14 19 33 31q33 20 67 6q14 -6 26 -13q11 -7 21 -14q15 -10 26 -10q15 0 25 9t10 23q0 17 -16 34q-50 44 -116 44q-41 0 -74 -18t-55.5 -47t-34.5 -65
q-13 -35 -13 -73q0 -45 13 -83t38 -65t60 -41t77 -14q22 0 43.5 7t36.5 15q16 10 27 20q15 15 15 30q0 12 -8 22q-10 13 -25.5 13zM639 383q-13 14 -30 24q-15 9 -33 18q-23 10 -33 15q-13 6 -21 13q-7 5 -11 12q-3 6 -3 16q0 16 10 25q21 19 53 6q11 -5 20 -11
q11 -8 23 -11q23 -5 35 14q13 23 -3 43q-10 12 -26 21q-15 8 -35 12q-45 10 -79 -3q-20 -8 -35 -21q-15 -14 -24 -32q-9 -20 -9 -43q0 -27 9 -47q9 -18 24 -32q15 -13 35 -22q15 -7 38 -17q10 -4 22 -12q10 -6 18 -14q6 -7 11 -16q3 -8 3 -18q0 -9 -4 -18q-5 -10 -12 -17
q-8 -7 -18 -11q-9 -4 -19 -4q-32 0 -57 16q-11 7 -21 10q-21 6 -34 -10q-11 -14 -7 -30q4 -22 41 -39q16 -8 37 -13q19 -4 39 -4q25 0 47.5 9.5t39.5 25.5q18 16 28 38t10 48t-7 45q-8 20 -22 34zM908 349q-8 20 -21 34q-12 13 -30 24q-15 9 -34 18t-32 15t-22 13
q-7 5 -11 12q-3 6 -3 16q0 16 11 25q21 19 52 6q12 -5 21 -11q11 -8 23 -11q23 -5 34 14q14 23 -2 43q-10 12 -26 21q-15 8 -35 12q-46 10 -80 -3q-19 -8 -34 -21q-16 -14 -25 -33t-9 -42q0 -28 9 -47q9 -18 25 -32q15 -13 34 -21q16 -8 39 -18q11 -5 22 -12q10 -6 17 -14
q7 -7 11 -16q4 -8 4 -18q0 -9 -4 -18q-5 -10 -12.5 -17t-17.5 -11t-20 -4q-32 0 -56 16q-11 7 -21 10q-21 7 -34 -10q-11 -13 -8 -29q5 -22 41 -40q17 -8 37 -13q20 -4 39 -4q25 0 48 10q22 9 40 25q17 16 28 38q10 22 10 48q0 25 -8 45z" />
    <glyph glyph-name="uniE625" unicode="&#xe625;" 
d="M920 814q13 0 22.5 -9.5t9.5 -22.5v-801q0 -12 -9.5 -21.5t-22.5 -9.5h-800q-13 0 -22.5 9.5t-9.5 21.5v801q0 13 9.5 22.5t22.5 9.5h800zM920 882h-800q-41 0 -70.5 -29.5t-29.5 -70.5v-800q0 -41 29 -70.5t71 -29.5h800q41 0 70.5 29t29.5 71v800q0 41 -29 70.5
t-71 29.5zM425 664q-4 0 -8.5 -1.5t-12 -5.5t-12 -14t-4.5 -26v-355v-38q0 -15 -3 -28q-3 -10 -9 -16q-4 -4 -17 -4q-17 0 -25 4q-10 5 -16 10q-7 6 -11 11q-13 14 -29 14q-19 0 -29 -16q-7 -11 -7 -24q0 -16 17 -36q14 -16 37 -29q12 -6 25.5 -9.5t29.5 -3.5q18 0 35 4.5
t36 17t30 40t11 67.5v391q0 19 -9 31q-11 16 -29 16zM789 328q-9 26 -25 46q-15 19 -37 33q-20 14 -42 26q-20 10 -42 22q-17 9 -29 20q-10 10 -16 22t-6 29q0 30 17 47q30 30 73 10q17 -8 28 -17q13 -11 27 -15q26 -6 38 17q13 25 -3 48q-11 15 -31 28q-19 11 -43 17
q-57 15 -100 -4q-23 -11 -42 -30q-18 -18 -28.5 -44t-10.5 -57q0 -37 10 -62q11 -26 29 -44q17 -17 43 -31q21 -11 49 -25q15 -7 30 -18q13 -9 24 -22q9 -12 16 -27q5 -14 5 -32q0 -17 -6 -33q-7 -16 -18 -28t-25 -18q-13 -6 -27 -6q-42 0 -75 25q-14 10 -25 13
q-24 9 -39 -13q-11 -15 -7 -32q6 -26 48 -49q22 -12 46 -18q25 -6 50 -6q30 0 59 14q21 22 49 35q21 23 33 53q13 30 13 65q-1 35 -10 60v1z" />
    <glyph glyph-name="uniE626" unicode="&#xe626;" 
d="M512 528q-72 0 -123.5 -51.5t-51.5 -124t51.5 -123.5t123.5 -51t123.5 51t51.5 123.5t-51.5 124t-123.5 51.5zM512 91q-135 0 -246.5 72t-167.5 190q56 118 167.5 190t246.5 72t246.5 -72t167.5 -190q-56 -118 -167.5 -190t-246.5 -72zM998 353q-59 146 -191 237t-295 91
t-295 -91t-191 -237q59 -146 191 -237t295 -91t295 91t191 237zM512 244q-45 0 -77 32t-32 77t32 77t77 32t77 -32t32 -77t-32 -77.5t-77 -32.5v1z" />
    <glyph glyph-name="uniE627" unicode="&#xe627;" horiz-adv-x="1025" 
d="M427 640h85v-85h-85v-86h-342v-85h-85v512h427v-256zM1024 469h-171v-85h171v-171h-256v256h-171v256h-85v171h512v-427zM85 811v-256h256v256h-256zM683 811v-256h256v256h-256zM256 640h-85v85h85v-85zM853 640h-85v85h85v-85zM256 299h171v-427h-427v427h171v85h85
v-85zM683 128h170v-85h-85v-86h-171v86h-85v85h85v171h-170v85h256v-256zM85 213v-256h256v256h-256zM256 43h-85v85h85v-85zM1024 43h-85v85h85v-85zM597 -128h-85v85h85v-85zM1024 -128h-256v85h256v-85z" />
    <glyph glyph-name="uniE74F" unicode="&#xe74f;" 
d="M774 896h-524q-114 0 -182 -68t-68 -182v-524q0 -114 68 -182t182 -68h524q114 0 182 68t68 182v524q0 114 -68 182t-182 68zM960 785q-8 13 -19 23q11 -11 19 -23zM897 562q37 -80 39 -167h-145q-4 94 -63 167h169zM728 584l92 92q40 -43 66 -92h-158zM936 372
q-2 -88 -40 -167h-170q61 72 65 167h145zM886 182q-26 -47 -66 -90l-90 90h156zM911 182h27v-207l-102 101q45 47 75 106zM922 205q9 21 16 41v-41h-16zM922 562h16v-40q-7 21 -16 40zM912 584q-31 60 -76 108l102 101v-209h-26zM937 812q-11 11 -21 18q11 -7 21 -18z
M714 873h60q83 0 141 -42h-201v42zM714 808h206l-100 -100q-48 45 -106 75v25zM714 758q47 -26 90 -66l-90 -90v156zM714 542q51 -65 54 -148h-54v148zM714 372h54q-4 -82 -54 -146v146zM714 166l90 -90q-42 -39 -90 -66v156zM714 -15q59 30 106 75l101 -102h-207v27z
M524 640q83 -4 148 -56h-148v56zM645 267l-105 105h149q-4 -60 -44 -105zM645 235l30 -30h-73q23 12 43 30zM539 395l106 106q41 -45 44 -106h-150zM604 562h70l-28 -28q-19 16 -42 28zM524 561q61 -4 105 -44l-105 -105v149zM524 356l105 -105q-45 -40 -105 -44v149z
M524 182h146q-64 -50 -146 -54v54zM335 808h35q-21 -7 -35 -14v14zM335 545l28 -28q-16 -17 -28 -40v68zM335 372h149l-105 -105q-40 45 -44 105zM423 205h-74l30 30q20 -18 44 -30zM335 395q3 60 44 106l107 -106h-151zM379 533l-28 29h69q-23 -12 -41 -29zM335 292
q12 -24 28 -41l-28 -28v69zM335 -26q17 -8 39 -16h-39v16zM23 562h42v-161v-3v-4h-42v168zM23 372h42v-2v-3v-162h-42v167zM23 182h42v-201q-42 58 -42 141v60zM66 -20q7 -10 18 -21q-10 10 -18 21zM87 -45q12 -11 24 -19q-10 7 -24 19zM112 584h-24v208l100 -100
q-46 -48 -76 -108zM204 676l92 -92h-158q26 49 66 92zM102 562q-7 -16 -14 -36v36h14zM127 562h170q-60 -73 -64 -167h-145v6q3 84 39 161zM233 372q5 -95 65 -167h-170q-37 77 -40 162v5h145zM294 182l-90 -90q-40 42 -66 90h156zM102 205h-14v37q7 -20 14 -37zM113 182
q30 -58 75 -106l-100 -100v206h25zM312 -105h-62q-81 0 -139 41h201v-41zM312 -42h-209l101 102q48 -46 108 -76v-26zM312 10q-49 26 -92 66l92 92v-158zM312 224q-52 64 -56 148h56v-148zM312 395h-56q3 84 56 149v-149zM312 600l-92 92q43 40 92 66v-158zM312 784
q-60 -31 -108 -76l-100 100h208v-24zM312 831h-203q-25 -18 -44 -43v-204h-42v62q0 104 61.5 165.5t165.5 61.5h62v-42zM501 -105h-166v41h167zM501 -40q-88 2 -167 39v169q73 -59 167 -63v-145zM501 128q-82 3 -147 54h147v-54zM501 207q-61 3 -106 44l106 106v-150z
M501 411l-106 106q45 41 107 44zM501 584h-149q66 53 150 56v-56h-1zM501 663q-94 -4 -167 -63v169q77 36 162 39h5v-145zM501 831h-3h-2h-161v42h166v-42zM691 -105h-167v41h167v-41zM691 -42h-41q21 7 41 16v-16zM691 -1q-79 -37 -167 -39v145q95 5 167 65v-171zM691 221
l-30 30q18 19 30 44v-74zM691 473q-12 25 -30 44l30 30v-74zM691 598q-72 61 -167 65v145h4q86 -3 163 -40v-170zM691 794q-15 6 -37 14h37v-14zM691 831h-163h-2h-2v42h167v-42zM774 -105h-60v41h199q-58 -41 -139 -41zM914 -64q27 19 46 47q-19 -28 -46 -47zM1001 122
q0 -81 -41 -139v199h41v-60zM1001 205h-41v167h41v-167zM1001 395h-41v167h41v-167zM1001 584h-41v201q41 -58 41 -139v-62z" />
    <glyph glyph-name="uniE753" unicode="&#xe753;" 
d="M550 845l121 -249q26 -25 39 -25l275 -39q28 -4 36.5 -31t-11.5 -46l-198 -192q-13 -12 -13 -38l45 -275q5 -29 -17.5 -44t-46.5 -1l-249 128q-20 10 -39 0l-249 -128q-23 -13 -46 3.5t-18 41.5l44 275q0 32 -12 38l-197 192q-20 19 -11.5 45.5t36.5 31.5l275 39
q9 0 18 7.5t14 17.5l121 249q15 24 44.5 24t38.5 -24z" />
  </font>
</defs>
</svg>
