<?xml version="1.0" encoding="UTF-8" standalone="no"?>
<svg width="82px" height="82px" viewBox="0 0 82 82" version="1.1" xmlns="http://www.w3.org/2000/svg" xmlns:xlink="http://www.w3.org/1999/xlink">
    <!-- Generator: Sketch 39.1 (31720) - http://www.bohemiancoding.com/sketch -->
    <title>失败icon copy</title>
    <desc>Created with Sketch.</desc>
    <defs></defs>
    <g id="图标" stroke="none" stroke-width="1" fill="none" fill-rule="evenodd">
        <g id="失败icon-copy" transform="translate(1.000000, 1.000000)">
            <g id="Group-3-Copy" stroke="#F16768" fill="#F3A6A6">
                <path d="M40,80 C62.09139,80 80,62.09139 80,40 C80,17.90861 62.09139,0 40,0 C17.90861,0 0,17.90861 0,40 C0,62.09139 17.90861,80 40,80 Z" id="椭圆形-copy-2"></path>
            </g>
            <g id="Group-2" transform="translate(38.000000, 18.000000)">
                <path d="M2,44 C3.1045695,44 4,43.1045695 4,42 C4,40.8954305 3.1045695,40 2,40 C0.8954305,40 0,40.8954305 0,42 C0,43.1045695 0.8954305,44 2,44 Z" id="Oval" fill="#F16768"></path>
                <rect id="Rectangle-5" fill-opacity="0.8" fill="#F35959" x="0" y="0" width="4" height="36" rx="2"></rect>
            </g>
        </g>
    </g>
</svg>